<?xml version="1.0" encoding="UTF-8"?>
<svg id="Capa_2" xmlns="http://www.w3.org/2000/svg" viewBox="0 0 262.26 293.54">
  <defs>
    <style>
      .cls-1 {
        fill: #0a2472;
        stroke: #c99c33;
        stroke-miterlimit: 10;
        stroke-width: 4px;
      }
    </style>
  </defs>
  <g id="Capa_1-2" data-name="Capa_1">
    <g id="Capa_1-3" data-name="Capa_1">
      <g id="Capa_1-2">
        <g>
          <path class="cls-1" d="M154.89,183.83H59.59c1.7,25.8,23.9,59.8,75,56.4v10.1c0,2.5,0,5-.1,7.5,0,.6-.9,1.6-1.5,1.6-23.8.9-46.7-2.3-66.7-16.6-17.8-12.8-28-30.3-31.4-51.7-1-6.3-1-12.7-1.6-19.1,0-1-.6-2.3-1.3-2.9-16.8-14.3-25.7-32.8-28.6-54.4-2.5-18.2-1.9-36.4,4.1-53.9C18.19,29.33,40.19,10.33,72.79,4.13c20.3-3.8,40.4-2.6,60.1,4.3,1.8.6,2.4,1.4,2.2,3.4-.4,5.7-.5,11.4-.7,17.2,0,.8-.1,1.6-.2,2.7-1.5-.6-2.7-1-3.9-1.5-16.3-6.7-33.2-9.2-50.6-5.8-22.9,4.4-38.9,17.6-46.7,39.5-8.3,23.4-7.6,46.9,2.9,69.8.8,1.6,1.8,3.2,2.8,5.1.4-.8.7-1.2.9-1.7,11-26.6,31.2-42.2,58.8-48.9,10.5-2.5,21.3-3.2,32.1-3,1.9,0,2.5.5,2.4,2.6-.2,4.6-.1,9.3,0,13.9,0,2-.5,2.6-2.5,2.5-13.6-.4-26.8,1.6-38.9,8.3-17.5,9.9-27.7,25-31.3,44.7-.1.7.5,1.9,1.1,2.2,5.8,2.9,11.6,5.2,18.4,5.1,14.3-.3,28.5-.1,42.8-.2,16.2,0,32.5-.3,48.8-.3,1.6,0,3.2.6,4.7,1.2,2,.9,2.8,2.5,2.7,4.8v52.3c0,17.6,0,35.2.2,52.8,0,2.6-1.1,4.6-2.5,6.5-1.9,2.6-4,5.2-6.3,7.4-1.2,1.2-3.1,1.9-4.9,2.3s-3.8.1-5.7.1c-3.2,0-4.9-1.7-4.9-4.9,0-9.5.2-18.9.3-28.4.1-24.1.2-48.1.2-72.2,0-.6-.1-1.3-.2-2.2h0v.1Z"/>
          <path class="cls-1" d="M208.89,245.93c1.5-5.7,2.9-11.1,4.3-16.6,4.6-17.5,9.3-34.9,13.8-52.4.5-2.1,1.4-2.9,3.6-2.8,8.7.2,17.4,0,26.1,0h2.8c-.5,1.5-.9,2.8-1.3,4-7.8,21.8-15.5,43.5-23.2,65.3-.7,1.9-1.5,2.5-3.5,2.5-7.4-.1-14.9,0-22.6,0h0Z"/>
          <path class="cls-1" d="M227.09,51.33h31.6v33.1h-31.6v-33.1Z"/>
        </g>
      </g>
    </g>
  </g>
</svg>