<?xml version="1.0" encoding="UTF-8"?>
<svg xmlns="http://www.w3.org/2000/svg" version="1.1" viewBox="0 0 708.7 498.9">
  <defs>
    <style>
      .cls-1 {
        fill: #fff;
      }

      .cls-2 {
        fill: #0a2472;
        stroke: #c99c33;
        stroke-miterlimit: 10;
        stroke-width: 4px;
      }
    </style>
  </defs>
  <!-- Generator: Adobe Illustrator 28.7.1, SVG Export Plug-In . SVG Version: 1.2.0 Build 142)  -->
  <g>
    <g id="Capa_1">
      <g id="Capa_1-2" data-name="Capa_1">
        <g>
          <path class="cls-1" d="M102.2,498.6V.3h498.3v498.4H102.2ZM351.1,299.8c0,.9.2,1.5.2,2.2,0,24.1-.1,48.1-.2,72.2,0,9.5-.2,18.9-.3,28.4,0,3.2,1.7,4.9,4.9,4.9,1.9,0,3.9.3,5.7-.1,1.7-.4,3.6-1.1,4.9-2.3,2.3-2.2,4.4-4.8,6.3-7.4,1.4-1.9,2.5-3.9,2.5-6.5-.2-17.6-.2-35.2-.2-52.8,0-17.4,0-34.9,0-52.3,0-2.3-.8-4-2.7-4.8-1.5-.6-3.1-1.2-4.7-1.2-16.2,0-32.5.2-48.8.3-14.3,0-28.5-.1-42.8.2-6.8.2-12.6-2.1-18.4-5.1-.6-.3-1.2-1.5-1.1-2.2,3.6-19.7,13.8-34.8,31.3-44.7,12.1-6.8,25.3-8.8,38.9-8.3,2,0,2.6-.5,2.5-2.5-.1-4.6-.2-9.3,0-13.9,0-2.1-.5-2.5-2.4-2.6-10.8-.2-21.6.4-32.1,3-27.6,6.6-47.7,22.2-58.8,48.8-.2.5-.5.9-.9,1.7-1.1-1.9-2.1-3.4-2.8-5.1-10.5-22.9-11.2-46.4-2.9-69.8,7.8-21.9,23.8-35.1,46.7-39.5,17.5-3.4,34.3-.9,50.6,5.8,1.2.5,2.4.9,3.9,1.5.1-1.1.2-1.9.2-2.7.2-5.7.4-11.5.7-17.2.1-1.9-.4-2.7-2.2-3.4-19.6-6.9-39.8-8.1-60.1-4.3-32.6,6.2-54.6,25.2-65.3,56.7-5.9,17.5-6.5,35.7-4.1,53.9,2.9,21.6,11.8,40.1,28.6,54.4.7.6,1.2,1.9,1.3,2.9.6,6.4.6,12.8,1.6,19.1,3.4,21.5,13.6,39,31.4,51.7,20,14.4,42.9,17.5,66.7,16.6.5,0,1.4-1,1.5-1.6.2-2.5.1-5,.1-7.5v-10.1c-51.1,3.4-73.3-30.6-75-56.4h95.3ZM405.1,362.1c7.8,0,15.2,0,22.6,0,2,0,2.9-.6,3.5-2.5,7.7-21.8,15.5-43.5,23.2-65.3.4-1.2.8-2.5,1.3-4h-2.8c-8.7,0-17.4.1-26.1,0-2.3,0-3.1.8-3.6,2.8-4.6,17.5-9.2,34.9-13.8,52.4-1.4,5.4-2.8,10.9-4.3,16.6h0ZM423.4,167.2v33.1h31.6v-33.1h-31.6Z"/>
          <path d="M354,299.5h-95.3c1.7,25.8,23.9,59.8,75,56.4v10.1c0,2.5,0,5-.1,7.5,0,.6-.9,1.6-1.5,1.6-23.8.9-46.7-2.3-66.7-16.6-17.8-12.8-28-30.3-31.4-51.7-1-6.3-1-12.7-1.6-19.1,0-1-.6-2.3-1.3-2.9-16.8-14.3-25.7-32.8-28.6-54.4-2.5-18.2-1.9-36.4,4.1-53.9,10.7-31.5,32.7-50.5,65.3-56.7,20.3-3.8,40.4-2.6,60.1,4.3,1.8.6,2.4,1.4,2.2,3.4-.4,5.7-.5,11.4-.7,17.2,0,.8-.1,1.6-.2,2.7-1.5-.6-2.7-1-3.9-1.5-16.3-6.7-33.2-9.2-50.6-5.8-22.9,4.4-38.9,17.6-46.7,39.5-8.3,23.4-7.6,46.9,2.9,69.8.8,1.6,1.8,3.2,2.8,5.1.4-.8.7-1.2.9-1.7,11-26.6,31.2-42.2,58.8-48.9,10.5-2.5,21.3-3.2,32.1-3,1.9,0,2.5.5,2.4,2.6-.2,4.6-.1,9.3,0,13.9,0,2-.5,2.6-2.5,2.5-13.6-.4-26.8,1.6-38.9,8.3-17.5,9.9-27.7,25-31.3,44.7-.1.7.5,1.9,1.1,2.2,5.8,2.9,11.6,5.2,18.4,5.1,14.3-.3,28.5-.1,42.8-.2,16.2,0,32.5-.3,48.8-.3,1.6,0,3.2.6,4.7,1.2,2,.9,2.8,2.5,2.7,4.8,0,17.4,0,34.9,0,52.3,0,17.6,0,35.2.2,52.8,0,2.6-1.1,4.6-2.5,6.5-1.9,2.6-4,5.2-6.3,7.4-1.2,1.2-3.1,1.9-4.9,2.3-1.8.4-3.8.1-5.7.1-3.2,0-4.9-1.7-4.9-4.9,0-9.5.2-18.9.3-28.4.1-24.1.2-48.1.2-72.2,0-.6-.1-1.3-.2-2.2h0Z"/>
          <path class="cls-2" d="M354,299.5h-95.3c1.7,25.8,23.9,59.8,75,56.4v10.1c0,2.5,0,5-.1,7.5,0,.6-.9,1.6-1.5,1.6-23.8.9-46.7-2.3-66.7-16.6-17.8-12.8-28-30.3-31.4-51.7-1-6.3-1-12.7-1.6-19.1,0-1-.6-2.3-1.3-2.9-16.8-14.3-25.7-32.8-28.6-54.4-2.5-18.2-1.9-36.4,4.1-53.9,10.7-31.5,32.7-50.5,65.3-56.7,20.3-3.8,40.4-2.6,60.1,4.3,1.8.6,2.4,1.4,2.2,3.4-.4,5.7-.5,11.4-.7,17.2,0,.8-.1,1.6-.2,2.7-1.5-.6-2.7-1-3.9-1.5-16.3-6.7-33.2-9.2-50.6-5.8-22.9,4.4-38.9,17.6-46.7,39.5-8.3,23.4-7.6,46.9,2.9,69.8.8,1.6,1.8,3.2,2.8,5.1.4-.8.7-1.2.9-1.7,11-26.6,31.2-42.2,58.8-48.9,10.5-2.5,21.3-3.2,32.1-3,1.9,0,2.5.5,2.4,2.6-.2,4.6-.1,9.3,0,13.9,0,2-.5,2.6-2.5,2.5-13.6-.4-26.8,1.6-38.9,8.3-17.5,9.9-27.7,25-31.3,44.7-.1.7.5,1.9,1.1,2.2,5.8,2.9,11.6,5.2,18.4,5.1,14.3-.3,28.5-.1,42.8-.2,16.2,0,32.5-.3,48.8-.3,1.6,0,3.2.6,4.7,1.2,2,.9,2.8,2.5,2.7,4.8,0,17.4,0,34.9,0,52.3,0,17.6,0,35.2.2,52.8,0,2.6-1.1,4.6-2.5,6.5-1.9,2.6-4,5.2-6.3,7.4-1.2,1.2-3.1,1.9-4.9,2.3-1.8.4-3.8.1-5.7.1-3.2,0-4.9-1.7-4.9-4.9,0-9.5.2-18.9.3-28.4.1-24.1.2-48.1.2-72.2,0-.6-.1-1.3-.2-2.2h0Z"/>
          <path class="cls-2" d="M408,361.6c1.5-5.7,2.9-11.1,4.3-16.6,4.6-17.5,9.3-34.9,13.8-52.4.5-2.1,1.4-2.9,3.6-2.8,8.7.2,17.4,0,26.1,0h2.8c-.5,1.5-.9,2.8-1.3,4-7.8,21.8-15.5,43.5-23.2,65.3-.7,1.9-1.5,2.5-3.5,2.5-7.4-.1-14.9,0-22.6,0h0Z"/>
          <path class="cls-2" d="M426.2,167h31.6v33.1h-31.6v-33.1Z"/>
        </g>
      </g>
    </g>
  </g>
</svg>